<?xml version="1.0"?>
<svg xmlns="http://www.w3.org/2000/svg" height="512px" version="1.1" viewBox="0 -5 511.99976 511" width="512px">
<g id="surface1">
<path d="M 511.265625 185.960938 C 509.5 180.53125 504.808594 176.574219 499.15625 175.753906 L 340.433594 152.6875 L 269.453125 8.863281 C 266.921875 3.742188 261.710938 0.5 256 0.5 C 250.289062 0.5 245.074219 3.742188 242.546875 8.859375 L 171.566406 152.6875 L 12.84375 175.753906 C 7.191406 176.574219 2.496094 180.53125 0.734375 185.960938 C -1.03125 191.390625 0.441406 197.351562 4.53125 201.335938 L 119.382812 313.292969 L 92.269531 471.371094 C 91.304688 477 93.621094 482.6875 98.238281 486.042969 C 100.851562 487.941406 103.945312 488.90625 107.058594 488.90625 C 109.445312 488.90625 111.839844 488.339844 114.035156 487.183594 L 176.734375 454.222656 L 176.734375 485.703125 C 176.734375 493.988281 183.449219 500.703125 191.734375 500.703125 L 320.265625 500.703125 C 328.550781 500.703125 335.265625 493.988281 335.265625 485.703125 L 335.265625 454.222656 L 397.96875 487.183594 C 403.019531 489.84375 409.148438 489.398438 413.765625 486.042969 C 418.382812 482.6875 420.695312 477 419.730469 471.371094 L 392.617188 313.292969 L 507.46875 201.335938 C 511.558594 197.351562 513.03125 191.390625 511.265625 185.960938 Z M 206.734375 470.703125 L 206.734375 429.609375 C 206.734375 429.585938 206.734375 429.558594 206.734375 429.535156 L 206.734375 421.4375 C 206.734375 394.269531 228.835938 372.167969 256 372.167969 C 283.167969 372.167969 305.269531 394.269531 305.269531 421.4375 L 305.269531 429.535156 C 305.269531 429.558594 305.269531 429.582031 305.269531 429.609375 L 305.269531 470.703125 Z M 208.792969 294.964844 C 208.792969 268.933594 229.96875 247.757812 256 247.757812 C 282.03125 247.757812 303.207031 268.933594 303.207031 294.964844 C 303.207031 320.996094 282.03125 342.171875 256 342.171875 C 229.96875 342.171875 208.792969 320.996094 208.792969 294.964844 Z M 366.03125 297.316406 C 362.496094 300.761719 360.882812 305.726562 361.714844 310.59375 L 385.023438 446.488281 L 335.238281 420.316406 C 334.875 394.207031 321.828125 371.125 301.992188 356.9375 C 320.921875 342.855469 333.207031 320.320312 333.207031 294.964844 C 333.207031 252.394531 298.574219 217.757812 256 217.757812 C 213.429688 217.757812 178.796875 252.394531 178.796875 294.964844 C 178.796875 320.320312 191.082031 342.855469 210.011719 356.9375 C 190.175781 371.125 177.128906 394.207031 176.761719 420.316406 L 126.976562 446.488281 L 150.285156 310.59375 C 151.121094 305.726562 149.507812 300.761719 145.972656 297.316406 L 47.238281 201.070312 L 183.683594 181.242188 C 188.570312 180.53125 192.792969 177.464844 194.976562 173.035156 L 256 49.394531 L 317.023438 173.039062 C 319.207031 177.464844 323.429688 180.535156 328.316406 181.242188 L 464.765625 201.070312 Z M 366.03125 297.316406 " style=" fill-rule:nonzero;fill-opacity:1;" stroke="#808080" fill="#808080"/>
</g>
</svg>
