<?xml version="1.0"?>
<svg xmlns="http://www.w3.org/2000/svg" height="512px" version="1.1" viewBox="0 -38 511.99811 511" width="512px">
<g id="surface1">
<path d="M 501.636719 186.925781 C 500.117188 186.433594 486.332031 182.09375 470.589844 182.09375 C 460.734375 182.09375 452.089844 183.824219 444.8125 187.226562 C 444.667969 184.710938 444.488281 182.203125 444.242188 179.699219 C 456.59375 176.203125 473.425781 169.167969 482.992188 155.507812 C 498.441406 133.449219 491.179688 99.480469 490.300781 95.679688 C 488.574219 88.203125 481.472656 83.234375 473.863281 84.171875 C 470.179688 84.621094 438.859375 88.996094 422.523438 108.429688 C 421.40625 106.355469 420.257812 104.296875 419.058594 102.265625 C 418.980469 102.128906 418.894531 101.996094 418.8125 101.859375 C 428.527344 93.472656 440.796875 79.988281 443.691406 63.574219 C 448.367188 37.050781 427.433594 9.335938 425.03125 6.265625 C 420.304688 0.21875 411.777344 -1.285156 405.269531 2.777344 C 402.121094 4.746094 375.558594 21.960938 368.984375 46.5 C 363.105469 42.109375 356.976562 38.039062 350.605469 34.351562 C 343.433594 30.203125 334.257812 32.652344 330.109375 39.820312 C 326.734375 45.648438 327.722656 52.800781 332.0625 57.503906 C 318.496094 62.796875 308.203125 70.609375 306.550781 71.898438 C 300.503906 76.625 299 85.152344 303.0625 91.660156 C 304.972656 94.71875 321.238281 119.820312 344.617188 127.3125 C 346.613281 137.582031 352.226562 158.410156 366.261719 171.402344 C 363.734375 181.554688 360.015625 202.804688 367.246094 220.511719 C 360.664062 228.644531 348.316406 246.328125 347.386719 265.433594 C 336.988281 270.507812 315.242188 283.183594 307.910156 303.324219 C 302.367188 318.554688 305.882812 335.816406 309.964844 347.90625 C 293.105469 354 274.9375 357.332031 256 357.332031 C 237.066406 357.332031 218.894531 354 202.035156 347.90625 C 206.117188 335.816406 209.636719 318.554688 204.089844 303.324219 C 196.761719 283.183594 175.015625 270.507812 164.613281 265.433594 C 163.683594 246.332031 151.335938 228.644531 144.753906 220.511719 C 151.984375 202.804688 148.269531 181.554688 145.738281 171.402344 C 159.777344 158.410156 165.386719 137.582031 167.386719 127.3125 C 190.761719 119.816406 207.027344 94.71875 208.9375 91.660156 C 213 85.152344 211.496094 76.625 205.449219 71.898438 C 203.800781 70.609375 193.503906 62.796875 179.941406 57.503906 C 184.28125 52.800781 185.269531 45.648438 181.894531 39.820312 C 177.746094 32.652344 168.574219 30.199219 161.402344 34.347656 C 155.027344 38.035156 148.898438 42.109375 143.015625 46.496094 C 136.445312 21.960938 109.878906 4.742188 106.730469 2.777344 C 100.222656 -1.285156 91.695312 0.214844 86.96875 6.261719 C 84.566406 9.332031 63.632812 37.046875 68.308594 63.570312 C 71.203125 79.984375 83.472656 93.46875 93.1875 101.855469 C 93.105469 101.992188 93.019531 102.125 92.941406 102.257812 C 91.742188 104.292969 90.59375 106.351562 89.476562 108.425781 C 73.140625 88.992188 41.820312 84.617188 38.136719 84.164062 C 30.511719 83.230469 23.425781 88.199219 21.699219 95.675781 C 20.820312 99.476562 13.5625 133.445312 29.007812 155.503906 C 38.574219 169.164062 55.40625 176.203125 67.757812 179.695312 C 67.511719 182.199219 67.332031 184.707031 67.183594 187.222656 C 59.910156 183.824219 51.265625 182.089844 41.410156 182.089844 C 25.667969 182.089844 11.882812 186.429688 10.363281 186.921875 C 3.0625 189.296875 -1.265625 196.796875 0.328125 204.300781 C 1.140625 208.117188 8.917969 241.96875 32.238281 255.4375 C 40.164062 260.011719 49.988281 262.332031 61.429688 262.332031 C 61.433594 262.332031 61.433594 262.332031 61.433594 262.332031 C 67.257812 262.332031 72.808594 261.738281 77.574219 260.964844 C 78.414062 263.34375 79.292969 265.703125 80.222656 268.035156 C 80.214844 268.035156 80.207031 268.035156 80.199219 268.035156 C 54.8125 268.035156 31.226562 289.359375 28.621094 291.789062 C 23.007812 297.023438 22.253906 305.648438 26.871094 311.78125 C 29.21875 314.894531 50.574219 342.289062 77.402344 344.636719 C 78.671875 344.746094 79.980469 344.804688 81.285156 344.804688 C 81.289062 344.804688 81.285156 344.804688 81.289062 344.804688 C 96.539062 344.804688 111.128906 337.113281 120.921875 330.445312 C 122.6875 332.246094 124.488281 334.015625 126.324219 335.75 C 103.25 346.449219 90.875 375.664062 89.484375 379.113281 C 86.609375 386.230469 89.574219 394.367188 96.347656 397.972656 C 98.523438 399.128906 118.1875 409.273438 138.640625 409.273438 C 138.640625 409.273438 138.640625 409.273438 138.644531 409.273438 C 144.929688 409.273438 150.78125 408.304688 156.03125 406.394531 C 171.699219 400.691406 182.855469 386.25 189.425781 375.222656 C 194.816406 377.257812 200.320312 379.050781 205.929688 380.589844 C 197.199219 389.46875 189.203125 400.765625 182.1875 414.320312 C 178.378906 421.679688 181.257812 430.730469 188.613281 434.539062 C 195.972656 438.34375 205.023438 435.46875 208.828125 428.109375 C 222.242188 402.195312 239.433594 387.332031 256 387.332031 C 272.5625 387.332031 289.757812 402.195312 303.171875 428.113281 C 305.839844 433.265625 311.078125 436.21875 316.503906 436.21875 C 318.828125 436.21875 321.183594 435.679688 323.386719 434.539062 C 330.746094 430.730469 333.621094 421.679688 329.8125 414.320312 C 322.796875 400.765625 314.800781 389.46875 306.070312 380.589844 C 311.679688 379.050781 317.183594 377.257812 322.570312 375.222656 C 329.144531 386.25 340.296875 400.691406 355.972656 406.394531 C 361.21875 408.304688 367.070312 409.273438 373.359375 409.273438 C 393.8125 409.273438 413.472656 399.128906 415.648438 397.96875 C 422.425781 394.367188 425.386719 386.230469 422.511719 379.113281 C 421.121094 375.664062 408.746094 346.449219 385.675781 335.746094 C 387.511719 334.015625 389.308594 332.246094 391.074219 330.441406 C 400.867188 337.113281 415.460938 344.804688 430.710938 344.804688 C 432.015625 344.804688 433.320312 344.746094 434.597656 344.636719 C 461.425781 342.289062 482.777344 314.894531 485.125 311.777344 C 489.742188 305.648438 488.988281 297.023438 483.375 291.789062 C 480.769531 289.355469 457.183594 268.035156 431.796875 268.035156 C 431.789062 268.035156 431.78125 268.035156 431.773438 268.035156 C 432.703125 265.699219 433.582031 263.34375 434.421875 260.964844 C 439.1875 261.734375 444.742188 262.328125 450.566406 262.328125 C 462.007812 262.328125 471.832031 260.011719 479.757812 255.433594 C 503.078125 241.96875 510.855469 208.117188 511.667969 204.300781 C 513.265625 196.800781 508.9375 189.300781 501.636719 186.925781 Z M 383.996094 248.738281 C 389.101562 254.621094 393.507812 261.515625 394.03125 267.464844 C 394.550781 273.417969 391.414062 280.96875 387.410156 287.644531 C 382.410156 281.882812 377.898438 274.976562 377.367188 268.925781 C 376.847656 262.96875 379.992188 255.410156 383.996094 248.738281 Z M 412.90625 223.726562 C 405.941406 220.621094 398.933594 216.269531 395.894531 211.007812 C 392.90625 205.832031 392.5625 197.660156 393.367188 189.921875 C 400.332031 193.027344 407.339844 197.382812 410.378906 202.648438 C 413.367188 207.820312 413.714844 215.988281 412.90625 223.726562 Z M 377.011719 132.664062 C 377.472656 132.65625 377.9375 132.648438 378.410156 132.648438 C 386.921875 132.648438 393.804688 134.1875 397.796875 136.984375 C 402.691406 140.410156 406.453125 147.65625 408.996094 155.003906 C 408.53125 155.011719 408.066406 155.015625 407.59375 155.015625 C 399.082031 155.015625 392.195312 153.476562 388.207031 150.683594 C 383.316406 147.257812 379.554688 140.007812 377.011719 132.664062 Z M 444.71875 128.707031 C 448.148438 123.8125 455.40625 120.046875 462.757812 117.503906 C 462.886719 125.132812 461.90625 133.324219 458.421875 138.300781 C 454.992188 143.191406 447.738281 146.957031 440.382812 149.5 C 440.253906 141.875 441.234375 133.683594 444.71875 128.707031 Z M 397.675781 55.460938 C 398.714844 49.578125 403.703125 43.09375 409.292969 37.6875 C 412.632812 44.542969 415.203125 52.382812 414.148438 58.367188 C 413.109375 64.246094 408.125 70.726562 402.53125 76.140625 C 399.195312 69.28125 396.625 61.441406 397.675781 55.460938 Z M 338 87.675781 C 343.679688 84.898438 350.191406 82.558594 355.832031 82.558594 C 356.835938 82.558594 357.78125 82.636719 358.652344 82.789062 C 364.535156 83.828125 371.015625 88.8125 376.421875 94.398438 C 370.773438 97.164062 364.269531 99.488281 358.566406 99.488281 C 357.5625 99.488281 356.613281 99.410156 355.742188 99.257812 C 349.871094 98.222656 343.402344 93.253906 338 87.675781 Z M 336.101562 313.585938 C 338.144531 307.96875 344.1875 302.449219 350.636719 298.09375 C 352.78125 305.582031 353.859375 313.691406 351.816406 319.308594 C 349.773438 324.925781 343.730469 330.445312 337.277344 334.804688 C 335.136719 327.316406 334.054688 319.207031 336.101562 313.585938 Z M 123.792969 150.683594 C 119.804688 153.476562 112.921875 155.015625 104.410156 155.015625 C 103.941406 155.015625 103.480469 155.011719 103.023438 155.003906 C 105.511719 147.804688 109.234375 140.460938 114.203125 136.980469 C 118.195312 134.1875 125.078125 132.648438 133.589844 132.648438 C 134.0625 132.648438 134.527344 132.65625 134.988281 132.664062 C 132.445312 140.015625 128.683594 147.261719 123.792969 150.683594 Z M 116.105469 211.007812 C 113.117188 216.183594 106.210938 220.570312 99.097656 223.742188 C 98.289062 215.996094 98.632812 207.820312 101.621094 202.640625 C 104.609375 197.464844 111.523438 193.078125 118.628906 189.90625 C 119.441406 197.652344 119.09375 205.832031 116.105469 211.007812 Z M 117.972656 267.46875 C 118.492188 261.515625 122.894531 254.625 127.992188 248.75 C 131.917969 255.289062 135.160156 262.875 134.632812 268.929688 C 134.113281 274.882812 129.703125 281.777344 124.597656 287.660156 C 120.59375 280.980469 117.449219 273.421875 117.972656 267.46875 Z M 175.898438 313.589844 C 177.945312 319.207031 176.863281 327.316406 174.722656 334.804688 C 168.269531 330.445312 162.226562 324.925781 160.183594 319.308594 C 158.140625 313.691406 159.222656 305.578125 161.359375 298.09375 C 167.8125 302.453125 173.855469 307.972656 175.898438 313.589844 Z M 156.257812 99.257812 C 155.386719 99.410156 154.441406 99.488281 153.4375 99.488281 L 153.433594 99.488281 C 147.796875 99.488281 141.289062 97.152344 135.621094 94.378906 C 140.914062 88.914062 147.382812 83.839844 153.351562 82.789062 C 154.21875 82.636719 155.167969 82.558594 156.171875 82.558594 C 161.804688 82.558594 168.3125 84.894531 173.984375 87.667969 C 168.691406 93.136719 162.222656 98.207031 156.257812 99.257812 Z M 102.6875 37.691406 C 108.171875 42.988281 113.269531 49.476562 114.324219 55.460938 C 115.359375 61.347656 112.890625 69.144531 109.480469 76.148438 C 103.882812 70.734375 98.890625 64.25 97.851562 58.367188 C 96.8125 52.480469 99.285156 44.683594 102.6875 37.691406 Z M 53.582031 138.300781 C 50.152344 133.402344 49.097656 125.285156 49.226562 117.503906 C 56.589844 120.042969 63.851562 123.808594 67.28125 128.707031 C 70.707031 133.601562 71.765625 141.707031 71.636719 149.488281 C 64.425781 147 57.066406 143.273438 53.582031 138.300781 Z M 61.4375 232.335938 C 61.4375 232.335938 61.433594 232.335938 61.433594 232.335938 C 55.40625 232.335938 50.496094 231.339844 47.238281 229.460938 C 42.070312 226.472656 37.6875 219.578125 34.515625 212.480469 C 36.726562 212.246094 39.054688 212.09375 41.410156 212.09375 C 47.433594 212.09375 52.339844 213.089844 55.601562 214.96875 C 60.769531 217.957031 65.152344 224.851562 68.324219 231.949219 C 66.113281 232.1875 63.789062 232.335938 61.4375 232.335938 Z M 81.289062 314.808594 C 80.847656 314.808594 80.421875 314.792969 80.015625 314.753906 C 74.066406 314.234375 67.183594 309.839844 61.3125 304.746094 C 67.378906 301.113281 74.375 298.039062 80.199219 298.039062 C 80.636719 298.039062 81.066406 298.054688 81.472656 298.089844 C 87.417969 298.613281 94.300781 303.007812 100.171875 308.097656 C 94.234375 311.679688 87.265625 314.808594 81.289062 314.808594 Z M 145.769531 378.207031 C 143.820312 378.917969 141.421875 379.277344 138.644531 379.277344 L 138.640625 379.277344 C 134.0625 379.277344 129.109375 378.296875 124.59375 376.996094 C 128.859375 370.691406 134.351562 364.566406 140.046875 362.492188 C 142 361.78125 144.398438 361.421875 147.179688 361.421875 C 151.761719 361.421875 156.71875 362.40625 161.242188 363.707031 C 156.882812 370.144531 151.375 376.167969 145.769531 378.207031 Z M 373.363281 379.277344 C 370.582031 379.277344 368.183594 378.917969 366.234375 378.210938 C 360.628906 376.167969 355.117188 370.144531 350.761719 363.707031 C 355.28125 362.410156 360.242188 361.421875 364.824219 361.421875 C 367.605469 361.421875 370.003906 361.78125 371.957031 362.492188 C 377.5625 364.535156 383.070312 370.558594 387.425781 376.992188 C 382.90625 378.292969 377.941406 379.277344 373.363281 379.277344 Z M 450.683594 304.75 C 444.808594 309.84375 437.929688 314.234375 431.988281 314.753906 C 431.582031 314.792969 431.152344 314.808594 430.714844 314.808594 C 424.742188 314.808594 417.777344 311.679688 411.84375 308.105469 C 417.597656 303.117188 424.488281 298.621094 430.527344 298.09375 C 430.9375 298.054688 431.363281 298.039062 431.800781 298.039062 C 437.78125 298.039062 444.75 301.171875 450.683594 304.75 Z M 464.765625 229.457031 C 461.503906 231.339844 456.59375 232.335938 450.570312 232.335938 C 448.214844 232.335938 445.890625 232.1875 443.679688 231.949219 C 446.851562 224.847656 451.230469 217.957031 456.398438 214.972656 C 459.660156 213.089844 464.566406 212.09375 470.589844 212.09375 C 472.945312 212.09375 475.273438 212.242188 477.484375 212.480469 C 474.3125 219.582031 469.933594 226.472656 464.765625 229.457031 Z M 464.765625 229.457031 " style=" fill-rule:nonzero;fill-opacity:1;" stroke="#808080" fill="#808080"/>
</g>
</svg>
