<?xml version="1.0"?>
<svg xmlns="http://www.w3.org/2000/svg" viewBox="0 -54 512 512" width="512px" height="512px"><path d="m469.730469 157.117188c5.222656-2.855469 10.109375-6.421876 14.519531-10.6875 13.152344-12.71875 20.398438-29.800782 20.398438-48.101563v-34.121094c0-35.402343-28.804688-64.207031-64.207032-64.207031h-86.414062c-5.523438 0-10 4.476562-10 10v29.410156c0 12.386719 5.75 23.449219 14.710937 30.679688v41.121094c0 19.121093 9.980469 35.945312 24.992188 45.570312-7.574219 4.367188-14.511719 9.898438-20.5 16.472656l-107.230469 117.6875-107.230469-117.6875c-5.988281-6.574218-12.921875-12.105468-20.5-16.472656 15.011719-9.625 24.992188-26.449219 24.992188-45.570312v-41.121094c8.960937-7.230469 14.710937-18.292969 14.710937-30.679688 0-21.730468-17.679687-39.410156-39.410156-39.410156h-25.222656c-52.925782 0-95.988282 43.0625-95.988282 95.988281v97.015625c0 .867188.125 1.703125.328126 2.503906-4.917969 10.785157-7.679688 22.75-7.679688 35.355469v163.136719c0 5.523438 4.476562 10 10 10s10-4.476562 10-10v-163.136719c0-36.136719 29.402344-65.539062 65.539062-65.539062 18.398438 0 36.054688 7.800781 48.445313 21.398437l107.3125 117.78125c3.648437 4 5.292969 9.367188 4.519531 14.722656-.773437 5.359376-3.875 10.039063-8.503906 12.84375-6.710938 4.0625-15.203125 3.34375-21.136719-1.785156l-82.917969-71.707031c-2.957031-2.558594-7.140624-3.15625-10.699218-1.527344-3.558594 1.625-5.839844 5.179688-5.839844 9.09375v127.855469c0 5.523438 4.476562 10 10 10 5.519531 0 10-4.476562 10-10v-105.988281l66.375 57.402343c12.515625 10.824219 30.433594 12.335938 44.582031 3.761719 3.125-1.894531 5.914063-4.195312 8.324219-6.820312 2.410156 2.625 5.199219 4.925781 8.324219 6.820312 14.152343 8.574219 32.066406 7.0625 44.582031-3.761719l66.375-57.402343v105.988281c0 5.523438 4.480469 10 10 10 5.523438 0 10-4.476562 10-10v-127.855469c0-3.914062-2.28125-7.46875-5.839844-9.09375-3.558594-1.628906-7.742187-1.027343-10.699218 1.527344l-82.917969 71.707031c-5.933594 5.128906-14.425781 5.851563-21.136719 1.785156-4.628906-2.804687-7.730469-7.484374-8.503906-12.84375-.773438-5.355468.871094-10.722656 4.519531-14.722656l107.3125-117.78125c12.390625-13.601562 30.046875-21.398437 48.445313-21.398437 36.136718 0 65.539062 29.402343 65.539062 65.539062v120.136719c0 5.523438 4.476562 10 10 10s10-4.476562 10-10v-120.136719c0-31.386719-17.003906-58.859375-42.269531-73.746093zm-336.46875-45.90625c0 18.8125-15.304688 34.113281-34.113281 34.113281h-12.976563v-41.523438c0-13.773437 11.207031-24.980469 24.980469-24.980469h17.410156c1.589844 0 3.15625-.105468 4.699219-.292968zm-105.910157 57.03125v-72.253907c0-41.898437 34.089844-75.988281 75.988282-75.988281h25.222656c10.703125 0 19.410156 8.707031 19.410156 19.410156 0 10.699219-8.707031 19.40625-19.410156 19.40625h-17.410156c-24.800782 0-44.980469 20.179688-44.980469 44.984375v43.761719c-14.765625 3.433594-28.074219 10.6875-38.820313 20.679688zm336.675782-148.242188h76.414062c24.375 0 44.207032 19.832031 44.207032 44.207031v34.125c0 12.828125-5.078126 24.804688-14.300782 33.71875-6.863281 6.640625-15.34375 10.925781-24.519531 12.507813v-75.738282c0-5.523437-4.476563-10-10-10h-52.394531c-10.699219 0-19.40625-8.707031-19.40625-19.410156zm14.710937 58.527344c1.542969.1875 3.109375.292968 4.699219.292968h42.390625v66.503907h-12.976563c-18.808593 0-34.113281-15.300781-34.113281-34.113281zm0 0" fill="#808080"/><path d="m502 384c-2.628906 0-5.210938 1.070312-7.070312 2.929688-1.859376 1.859374-2.929688 4.441406-2.929688 7.070312s1.070312 5.210938 2.929688 7.070312c1.859374 1.859376 4.441406 2.929688 7.070312 2.929688s5.210938-1.070312 7.070312-2.929688c1.859376-1.859374 2.929688-4.441406 2.929688-7.070312s-1.070312-5.210938-2.929688-7.070312c-1.859374-1.859376-4.441406-2.929688-7.070312-2.929688zm0 0" fill="#808080"/></svg>
